<svg xmlns="http://www.w3.org/2000/svg" width="256" height="256" fill="none"><path fill="#81A8E0" d="M0 34.362C0 15.385 15.385 0 34.362 0h187.276C240.615 0 256 15.385 256 34.362v187.276C256 240.615 240.615 256 221.638 256H34.362C15.385 256 0 240.615 0 221.638z" opacity=".85"/><path fill="#fff" fill-rule="evenodd" d="M154.641 40.755c-1.747-1.707-9.025-10.174-14.556-2.107-7.278 10.429 15.938 19.912 19.796 15.625 3.857-4.288-2.22-10.647-5.168-13.554zM171.344 54.09c-6.296.582-8.479 5.851-5.495 8.613s10.189 1.962 11.972-1.418c2.402-4.469-2.547-7.557-6.477-7.267zM198.855 50.457c3.639-2.87 8.187-10.9 2.838-15.334-7.278-6.322-23.217 11.773-18.886 17.624 2.911 4.033 10.735 1.853 16.048-2.29M87.464 57.979a64.7 64.7 0 0 0-35.08 20.675c-2.365-6.83-7.605-13.807-7.278-19.767 3.967-7.267 24.818-18.168 28.42-17.296 3.094 1.999 4.368 2.834 8.08 5.632 7.278-3.125 22.889-11.591 25.218-7.267 2.729 5.16-10.917 12.1-19.36 17.95z" clip-rule="evenodd"/><path fill="#fff" fill-rule="evenodd" d="M87.937 60.123q.423-.107.801-.327c6.223-4.215 14.811-9.012 18.45-13.3a6.537 6.537 0 0 0 1.601-7.485 4.18 4.18 0 0 0-2.656-2.107 9.6 9.6 0 0 0-4.768 0 119.6 119.6 0 0 0-19.395 7.812c-3.02-2.253-4.331-3.125-7.279-4.978a2 2 0 0 0-.764-.29 5.5 5.5 0 0 0-2.183 0 29.4 29.4 0 0 0-6.077 2.143 87 87 0 0 0-15.32 8.866 26.6 26.6 0 0 0-7.279 7.267c-.156.279-.243.59-.254.909a19.85 19.85 0 0 0 1.855 8.539c1.638 3.924 4.076 8.03 5.495 12.1a2.07 2.07 0 0 0 1.71 1.417 2.15 2.15 0 0 0 2.075-.8 61.9 61.9 0 0 1 33.807-19.875zm17.031-19.04a1.45 1.45 0 0 1 0 1.235 10.9 10.9 0 0 1-2.511 2.943c-5 3.85-10.212 7.416-15.611 10.683a69.17 69.17 0 0 0-33.552 18.604c-1.055-2.362-2.293-4.687-3.348-7.013a20 20 0 0 1-2.51-8.03 24.1 24.1 0 0 1 5.712-5.487 82.7 82.7 0 0 1 14.556-8.394 30 30 0 0 1 4.658-1.707l.765-.182a72 72 0 0 1 7.278 5.233 2.26 2.26 0 0 0 2.183.29 138.6 138.6 0 0 1 19.724-8.067 10.4 10.4 0 0 1 2.11-.218h.582zM126.438 92.28c-2.438 9.157-4.294 20.64-26.71 33.975-5.204 3.089-18.632 4.288-31.987 16.497-16.12 14.534-27.256 38.734-27.256 38.734S14.21 161.283 12.39 150.201c-1.091-6.686 26.02-43.059 32.315-50.036 16.34-18.168 24.745-26.416 37.518-30.777 23.217-7.92 36.9 3.888 36.9 3.888l47.307-1.526 3.166 10.175s-39.156 9.592-43.013 10.356zm-28.894 7.268c7.497-1.163 7.279-15.916-1.855-14.535s-7.824 16.097 1.856 14.716z" clip-rule="evenodd"/><path fill="#fff" fill-rule="evenodd" d="M182.77 67.426c6.405-.472 6.369 5.778 18.923 28.706 10.335 18.859 35.444 58.72 38.683 66.096a43.26 43.26 0 0 1-3.639 42.95c-19.942 30.522-67.468 33.72-92.322 20.057-12.445-6.831-31.696-26.816-27.729-46.874 5.858-29.686 36.281-83.283 38.537-83.791 8.37-2.362 3.639 15.879 13.865 14.97 7.678-.69 11.644-19.04 9.279-28.451-3.311-13.263-4.221-12.827 4.512-13.481zm42.031 128.668c-3.166 6.504-8.006 10.137-15.939 13.662a3.1 3.1 0 0 0-1.583 4.088 3.1 3.1 0 0 0 4.094 1.581c9.571-4.252 15.247-8.758 18.996-16.752a3.04 3.04 0 0 0 .149-2.349 3.055 3.055 0 0 0-1.569-1.757 3.11 3.11 0 0 0-2.378-.137c-.385.135-.74.345-1.044.619a3.1 3.1 0 0 0-.726.972zm-45.67 8.72a37.55 37.55 0 0 1-23.799-7.267c-8.442-6.831-12.227-17.878-11.208-32.703 2.183-32.703 24.964-35.9 31.878-36.118 15.647-.4 27.693 7.267 32.241 20.893a49.3 49.3 0 0 1 2.038 11.737c.255 3.016.51 6.141 1.492 6.904a13.2 13.2 0 0 0 8.588 2.398 4.41 4.41 0 0 1 3.894 1.526 4.32 4.32 0 0 1 .837 4.07c-3.639 12.282-17.94 23.183-29.112 26.344a65.3 65.3 0 0 1-16.849 2.216m-2.875-67.513c-8.078.218-21.834 4.179-23.435 27.979-.8 11.991 1.892 20.567 8.006 25.436 11.499 9.266 31.659 3.633 32.496 3.633a40.78 40.78 0 0 0 20.961-15.552 20.9 20.9 0 0 1-7.897-3.633c-4.039-3.125-4.439-8.212-4.839-13.081a39.5 39.5 0 0 0-1.602-9.666c-3.347-9.992-11.717-15.297-23.69-14.934zm-9.024 16.206c-4.622-.29-5.532 8.285-.619 8.467 4.913.181 6.55-8.067.619-8.467m14.046 0c-5.313 0-5.022 8.321 0 8.031 5.677-.364 4.04-8.067 0-8.031" clip-rule="evenodd"/></svg>